<svg xmlns="http://www.w3.org/2000/svg" xmlns:xlink="http://www.w3.org/1999/xlink" viewBox="0 0 1920 1080"><defs><style>.cls-1{mask:url(#mask);filter:url(#luminosity-noclip-11);}.cls-10,.cls-12,.cls-14,.cls-16,.cls-18,.cls-2,.cls-20,.cls-4,.cls-6,.cls-8{mix-blend-mode:multiply;}.cls-2{fill:url(#linear-gradient);}.cls-3{mask:url(#mask-2);filter:url(#luminosity-noclip-16);}.cls-4{fill:url(#linear-gradient-2);}.cls-5{mask:url(#mask-3);filter:url(#luminosity-noclip-17);}.cls-6{fill:url(#linear-gradient-3);}.cls-7{mask:url(#mask-4);filter:url(#luminosity-noclip-18);}.cls-8{fill:url(#linear-gradient-4);}.cls-9{mask:url(#mask-5);filter:url(#luminosity-noclip-19);}.cls-10{fill:url(#linear-gradient-5);}.cls-11{mask:url(#mask-6);filter:url(#luminosity-noclip-20);}.cls-12{fill:url(#linear-gradient-6);}.cls-13{mask:url(#mask-7);filter:url(#luminosity-noclip-12);}.cls-14{fill:url(#linear-gradient-7);}.cls-15{mask:url(#mask-8);filter:url(#luminosity-noclip-13);}.cls-16{fill:url(#linear-gradient-8);}.cls-17{mask:url(#mask-9);filter:url(#luminosity-noclip-14);}.cls-18{fill:url(#linear-gradient-9);}.cls-19{mask:url(#mask-10);filter:url(#luminosity-noclip-15);}.cls-20{fill:url(#linear-gradient-10);}.cls-21{isolation:isolate;}.cls-22{fill:#b3d1f4;}.cls-23{fill:#85aeb9;}.cls-24{fill:#e5e3e8;}.cls-25{fill:#a3c4c5;}.cls-26{fill:#7ea9b6;}.cls-27{fill:url(#linear-gradient-11);}.cls-28{fill:#a6d0f4;}.cls-29,.cls-53{fill:#fff;}.cls-30{fill:#fb7094;}.cls-31{fill:url(#linear-gradient-12);}.cls-32{fill:#5ec1ca;}.cls-33{fill:url(#linear-gradient-13);}.cls-34{fill:#5ec1ef;}.cls-35{fill:url(#linear-gradient-14);}.cls-36{fill:#4fa4af;}.cls-37{fill:#897a97;}.cls-38{fill:#fba894;}.cls-39{fill:#505e83;}.cls-40{fill:#e46674;}.cls-41{fill:#464f6a;}.cls-42{fill:#e68e7d;}.cls-43{fill:#fa94a9;}.cls-44{fill:#de6972;}.cls-45{fill:#fb8585;}.cls-46{fill:#fad9dd;}.cls-47{fill:#3e4551;}.cls-48{fill:#dfe6ff;}.cls-49{fill:#cbc3d0;}.cls-124,.cls-128,.cls-130,.cls-131,.cls-132,.cls-134,.cls-138,.cls-50,.cls-70{fill:none;}.cls-128,.cls-50{stroke:#fff;}.cls-124,.cls-50,.cls-70{stroke-miterlimit:10;}.cls-50{stroke-width:3px;}.cls-51{fill:url(#linear-gradient-15);}.cls-52{fill:url(#linear-gradient-16);}.cls-53{mix-blend-mode:soft-light;}.cls-54{fill:url(#linear-gradient-17);}.cls-55{fill:#6c5474;}.cls-56{fill:#877494;}.cls-57{fill:url(#linear-gradient-18);}.cls-58{fill:url(#linear-gradient-19);}.cls-59{fill:url(#linear-gradient-20);}.cls-60{fill:url(#linear-gradient-21);}.cls-61{fill:url(#linear-gradient-22);}.cls-62{fill:#c1e6f4;}.cls-63{fill:#6dbff4;}.cls-64{fill:#fbc294;}.cls-65{fill:#fb9d6b;}.cls-66{fill:#78b394;}.cls-67{fill:#588d94;}.cls-68{fill:#3f4a5b;}.cls-69{fill:#796186;}.cls-70{stroke:#e5e3e8;}.cls-71{fill:#b9bcb7;}.cls-72{fill:#d4d2d2;}.cls-73{mask:url(#mask-11);}.cls-74{fill:url(#linear-gradient-23);}.cls-75{mask:url(#mask-12);}.cls-76{fill:url(#linear-gradient-24);}.cls-77{mask:url(#mask-13);}.cls-78{fill:url(#linear-gradient-25);}.cls-79{mask:url(#mask-14);}.cls-80{fill:url(#linear-gradient-26);}.cls-81{mask:url(#mask-15);}.cls-82{fill:url(#linear-gradient-27);}.cls-83{mask:url(#mask-16);}.cls-84{fill:url(#linear-gradient-28);}.cls-85{fill:url(#linear-gradient-29);}.cls-86{fill:url(#linear-gradient-30);}.cls-87{mask:url(#mask-17);}.cls-88{fill:url(#linear-gradient-31);}.cls-89{mask:url(#mask-18);}.cls-90{fill:url(#linear-gradient-32);}.cls-91{fill:#696969;}.cls-92{fill:#e2d2ca;}.cls-93{fill:#eea886;}.cls-94{fill:#2f4563;}.cls-95{fill:#eea987;}.cls-96{fill:#e8734d;}.cls-97{fill:#a77860;}.cls-98{fill:#dbdff0;}.cls-99{fill:#213045;}.cls-100{fill:#4e9bde;}.cls-101{fill:#e3e5ff;}.cls-102{fill:#b8bacf;}.cls-103{fill:#edebe7;}.cls-104{fill:#de4e74;}.cls-105{fill:#d2de4e;}.cls-106{fill:#9e9e9c;}.cls-107{fill:#355d94;}.cls-108{fill:url(#linear-gradient-33);}.cls-109{fill:url(#linear-gradient-34);}.cls-110{fill:url(#linear-gradient-35);}.cls-111{fill:url(#linear-gradient-36);}.cls-112{fill:#0e1e2b;}.cls-113{fill:url(#linear-gradient-37);}.cls-114{fill:url(#linear-gradient-38);}.cls-115{mask:url(#mask-19);}.cls-116{fill:url(#linear-gradient-39);}.cls-117{fill:url(#linear-gradient-40);}.cls-118{mask:url(#mask-20);}.cls-119{fill:url(#linear-gradient-41);}.cls-120{fill:url(#linear-gradient-42);}.cls-121{fill:#547bb0;}.cls-122{fill:#fdcfb9;}.cls-123{fill:#e17449;}.cls-124{stroke:#e17449;}.cls-124,.cls-128,.cls-130,.cls-131,.cls-132,.cls-134,.cls-138{stroke-linecap:round;}.cls-125{fill:#668cfe;}.cls-126{fill:#2b54b9;}.cls-127{fill:#293360;}.cls-128,.cls-130,.cls-131,.cls-132,.cls-134,.cls-138{stroke-linejoin:round;}.cls-128{stroke-width:0.5px;}.cls-129{fill:#e2f5ff;}.cls-130{stroke:#293360;}.cls-131{stroke:#2b54b9;}.cls-132{stroke:#111b3f;}.cls-133{fill:#7e1b48;}.cls-134{stroke:#69bdd0;}.cls-135{fill:#b4e5f4;}.cls-136{fill:#69bdd0;}.cls-137{fill:#fead52;}.cls-138{stroke:#7e1b48;}.cls-139{filter:url(#luminosity-noclip-10);}.cls-140{filter:url(#luminosity-noclip-9);}.cls-141{filter:url(#luminosity-noclip-8);}.cls-142{filter:url(#luminosity-noclip-7);}.cls-143{filter:url(#luminosity-noclip-6);}.cls-144{filter:url(#luminosity-noclip-5);}.cls-145{filter:url(#luminosity-noclip-4);}.cls-146{filter:url(#luminosity-noclip-3);}.cls-147{filter:url(#luminosity-noclip-2);}.cls-148{filter:url(#luminosity-noclip);}</style><filter id="luminosity-noclip" x="557.44" y="-8732" width="10.34" height="32766" filterUnits="userSpaceOnUse" color-interpolation-filters="sRGB"><feFlood flood-color="#fff" result="bg"/><feBlend in="SourceGraphic" in2="bg"/></filter><mask id="mask" x="557.44" y="-8732" width="10.34" height="32766" maskUnits="userSpaceOnUse"><g class="cls-148"/></mask><linearGradient id="linear-gradient" x1="562.6" y1="710.41" x2="562.6" y2="531.4" gradientUnits="userSpaceOnUse"><stop offset="0" stop-color="gray"/><stop offset="1"/></linearGradient><filter id="luminosity-noclip-2" x="574.32" y="-8732" width="7.43" height="32766" filterUnits="userSpaceOnUse" color-interpolation-filters="sRGB"><feFlood flood-color="#fff" result="bg"/><feBlend in="SourceGraphic" in2="bg"/></filter><mask id="mask-2" x="574.32" y="-8732" width="7.43" height="32766" maskUnits="userSpaceOnUse"><g class="cls-147"/></mask><linearGradient id="linear-gradient-2" x1="547.67" y1="698.59" x2="547.67" y2="651.17" gradientTransform="translate(30.36)" gradientUnits="userSpaceOnUse"><stop offset="0"/><stop offset="0.2" stop-color="#fff"/><stop offset="1" stop-color="#fff"/></linearGradient><filter id="luminosity-noclip-3" x="663.55" y="-8732" width="48.63" height="32766" filterUnits="userSpaceOnUse" color-interpolation-filters="sRGB"><feFlood flood-color="#fff" result="bg"/><feBlend in="SourceGraphic" in2="bg"/></filter><mask id="mask-3" x="663.55" y="-8732" width="48.63" height="32766" maskUnits="userSpaceOnUse"><g class="cls-146"/></mask><linearGradient id="linear-gradient-3" x1="687.86" y1="628.79" x2="687.86" y2="462.31" xlink:href="#linear-gradient"/><filter id="luminosity-noclip-4" x="597.3" y="-8732" width="55.2" height="32766" filterUnits="userSpaceOnUse" color-interpolation-filters="sRGB"><feFlood flood-color="#fff" result="bg"/><feBlend in="SourceGraphic" in2="bg"/></filter><mask id="mask-4" x="597.3" y="-8732" width="55.2" height="32766" maskUnits="userSpaceOnUse"><g class="cls-145"/></mask><linearGradient id="linear-gradient-4" x1="624.9" y1="620.24" x2="624.9" y2="478.14" xlink:href="#linear-gradient"/><filter id="luminosity-noclip-5" x="543.54" y="-8732" width="44.18" height="32766" filterUnits="userSpaceOnUse" color-interpolation-filters="sRGB"><feFlood flood-color="#fff" result="bg"/><feBlend in="SourceGraphic" in2="bg"/></filter><mask id="mask-5" x="543.54" y="-8732" width="44.18" height="32766" maskUnits="userSpaceOnUse"><g class="cls-144"/></mask><linearGradient id="linear-gradient-5" x1="565.63" y1="629.31" x2="565.63" y2="466.38" xlink:href="#linear-gradient"/><filter id="luminosity-noclip-6" x="632.2" y="-8732" width="40.6" height="32766" filterUnits="userSpaceOnUse" color-interpolation-filters="sRGB"><feFlood flood-color="#fff" result="bg"/><feBlend in="SourceGraphic" in2="bg"/></filter><mask id="mask-6" x="632.2" y="-8732" width="40.6" height="32766" maskUnits="userSpaceOnUse"><g class="cls-143"/></mask><linearGradient id="linear-gradient-6" x1="652.5" y1="705.29" x2="652.5" y2="573.28" xlink:href="#linear-gradient"/><filter id="luminosity-noclip-7" x="558.89" y="-8732" width="7.43" height="32766" filterUnits="userSpaceOnUse" color-interpolation-filters="sRGB"><feFlood flood-color="#fff" result="bg"/><feBlend in="SourceGraphic" in2="bg"/></filter><mask id="mask-7" x="558.89" y="-8732" width="7.43" height="32766" maskUnits="userSpaceOnUse"><g class="cls-142"/></mask><linearGradient id="linear-gradient-7" x1="532.24" y1="695.9" x2="532.24" y2="648.65" xlink:href="#linear-gradient-2"/><filter id="luminosity-noclip-8" x="588.3" y="-8732" width="10.34" height="32766" filterUnits="userSpaceOnUse" color-interpolation-filters="sRGB"><feFlood flood-color="#fff" result="bg"/><feBlend in="SourceGraphic" in2="bg"/></filter><mask id="mask-8" x="588.3" y="-8732" width="10.34" height="32766" maskUnits="userSpaceOnUse"><g class="cls-141"/></mask><linearGradient id="linear-gradient-8" x1="593.47" y1="710.41" x2="593.47" y2="531.41" xlink:href="#linear-gradient"/><filter id="luminosity-noclip-9" x="589.75" y="-8732" width="7.43" height="32766" filterUnits="userSpaceOnUse" color-interpolation-filters="sRGB"><feFlood flood-color="#fff" result="bg"/><feBlend in="SourceGraphic" in2="bg"/></filter><mask id="mask-9" x="589.75" y="-8732" width="7.43" height="32766" maskUnits="userSpaceOnUse"><g class="cls-140"/></mask><linearGradient id="linear-gradient-9" x1="563.1" y1="697.95" x2="563.1" y2="631.82" xlink:href="#linear-gradient-2"/><filter id="luminosity-noclip-10" x="572.87" y="-8732" width="10.34" height="32766" filterUnits="userSpaceOnUse" color-interpolation-filters="sRGB"><feFlood flood-color="#fff" result="bg"/><feBlend in="SourceGraphic" in2="bg"/></filter><mask id="mask-10" x="572.87" y="-8732" width="10.34" height="32766" maskUnits="userSpaceOnUse"><g class="cls-139"/></mask><linearGradient id="linear-gradient-10" x1="578.03" y1="710.41" x2="578.03" y2="531.4" xlink:href="#linear-gradient"/><linearGradient id="linear-gradient-11" x1="1251.03" y1="609.79" x2="1251.03" y2="637.33" gradientUnits="userSpaceOnUse"><stop offset="0" stop-color="#fff"/><stop offset="1" stop-color="#cff"/></linearGradient><linearGradient id="linear-gradient-12" x1="1271.08" y1="609.79" x2="1271.08" y2="637.33" xlink:href="#linear-gradient-11"/><linearGradient id="linear-gradient-13" x1="1211.02" y1="602.66" x2="1204.45" y2="634.43" xlink:href="#linear-gradient-11"/><linearGradient id="linear-gradient-14" x1="1233.55" y1="602.66" x2="1226.98" y2="634.43" xlink:href="#linear-gradient-11"/><linearGradient id="linear-gradient-15" x1="1570.88" y1="786.03" x2="1570.88" y2="807.75" xlink:href="#linear-gradient-11"/><linearGradient id="linear-gradient-16" x1="552.15" y1="770.62" x2="542.72" y2="818.44" gradientTransform="matrix(-1, 0, 0, 1, 2078.55, 0)" xlink:href="#linear-gradient-11"/><linearGradient id="linear-gradient-17" x1="1493.8" y1="725.16" x2="1485.27" y2="766.45" xlink:href="#linear-gradient-11"/><linearGradient id="linear-gradient-18" x1="1423.06" y1="772.79" x2="1423.06" y2="808.59" xlink:href="#linear-gradient-11"/><linearGradient id="linear-gradient-19" x1="1449.12" y1="772.79" x2="1449.12" y2="808.59" xlink:href="#linear-gradient-11"/><linearGradient id="linear-gradient-20" x1="1276.32" y1="769.01" x2="1310.58" y2="769.01" xlink:href="#linear-gradient-11"/><linearGradient id="linear-gradient-21" x1="1371.05" y1="763.51" x2="1362.51" y2="804.81" xlink:href="#linear-gradient-11"/><linearGradient id="linear-gradient-22" x1="1400.34" y1="763.51" x2="1391.8" y2="804.81" xlink:href="#linear-gradient-11"/><filter id="luminosity-noclip-11" x="557.44" y="640.01" width="10.34" height="52.46" filterUnits="userSpaceOnUse" color-interpolation-filters="sRGB"><feFlood flood-color="#fff" result="bg"/><feBlend in="SourceGraphic" in2="bg"/></filter><mask id="mask-11" x="557.44" y="640.01" width="10.34" height="52.46" maskUnits="userSpaceOnUse"><g class="cls-1"><path class="cls-2" d="M567.77,640H557.44v1.2h.68V688s0,4.48,4.48,4.48,4.49-4.48,4.49-4.48V641.21h.68Z"/></g></mask><linearGradient id="linear-gradient-23" x1="562.6" y1="710.41" x2="562.6" y2="531.4" gradientUnits="userSpaceOnUse"><stop offset="0" stop-color="#3b9dd9"/><stop offset="1" stop-color="#fff"/></linearGradient><filter id="luminosity-noclip-12" x="558.89" y="657.95" width="7.43" height="33.4" filterUnits="userSpaceOnUse" color-interpolation-filters="sRGB"><feFlood flood-color="#fff" result="bg"/><feBlend in="SourceGraphic" in2="bg"/></filter><mask id="mask-12" x="558.89" y="657.95" width="7.43" height="33.4" maskUnits="userSpaceOnUse"><g class="cls-13"><path class="cls-14" d="M558.89,658v29.68s0,3.72,3.71,3.72,3.72-3.72,3.72-3.72V658Z"/></g></mask><linearGradient id="linear-gradient-24" x1="532.24" y1="695.9" x2="532.24" y2="648.65" gradientTransform="translate(30.36)" gradientUnits="userSpaceOnUse"><stop offset="0" stop-color="#40cde6"/><stop offset="0.2" stop-color="#199ccc"/><stop offset="1" stop-color="#5f7"/></linearGradient><filter id="luminosity-noclip-13" x="588.3" y="631.49" width="10.34" height="60.99" filterUnits="userSpaceOnUse" color-interpolation-filters="sRGB"><feFlood flood-color="#fff" result="bg"/><feBlend in="SourceGraphic" in2="bg"/></filter><mask id="mask-13" x="588.3" y="631.49" width="10.34" height="60.99" maskUnits="userSpaceOnUse"><g class="cls-15"><path class="cls-16" d="M598.64,631.49H588.3v1.19H589V688s0,4.48,4.49,4.48S598,688,598,688V632.68h.69Z"/></g></mask><linearGradient id="linear-gradient-25" x1="593.47" y1="710.41" x2="593.47" y2="531.41" xlink:href="#linear-gradient-23"/><filter id="luminosity-noclip-14" x="589.75" y="652.92" width="7.43" height="38.44" filterUnits="userSpaceOnUse" color-interpolation-filters="sRGB"><feFlood flood-color="#fff" result="bg"/><feBlend in="SourceGraphic" in2="bg"/></filter><mask id="mask-14" x="589.75" y="652.92" width="7.43" height="38.44" maskUnits="userSpaceOnUse"><g class="cls-17"><path class="cls-18" d="M589.75,652.92v34.71s0,3.72,3.72,3.72,3.71-3.72,3.71-3.72V652.92Z"/></g></mask><linearGradient id="linear-gradient-26" x1="563.1" y1="697.95" x2="563.1" y2="631.82" gradientTransform="translate(30.36)" gradientUnits="userSpaceOnUse"><stop offset="0" stop-color="#40cde6"/><stop offset="0.2" stop-color="#4096e6"/><stop offset="1" stop-color="#d93ff5"/></linearGradient><filter id="luminosity-noclip-15" x="572.87" y="648.38" width="10.34" height="44.1" filterUnits="userSpaceOnUse" color-interpolation-filters="sRGB"><feFlood flood-color="#fff" result="bg"/><feBlend in="SourceGraphic" in2="bg"/></filter><mask id="mask-15" x="572.87" y="648.38" width="10.34" height="44.1" maskUnits="userSpaceOnUse"><g class="cls-19"><path class="cls-20" d="M583.2,648.38H572.87v1.19h.68V688s0,4.48,4.48,4.48,4.49-4.48,4.49-4.48V649.57h.68Z"/></g></mask><linearGradient id="linear-gradient-27" x1="578.03" y1="710.41" x2="578.03" y2="531.4" xlink:href="#linear-gradient-23"/><filter id="luminosity-noclip-16" x="574.32" y="663.84" width="7.43" height="27.51" filterUnits="userSpaceOnUse" color-interpolation-filters="sRGB"><feFlood flood-color="#fff" result="bg"/><feBlend in="SourceGraphic" in2="bg"/></filter><mask id="mask-16" x="574.32" y="663.84" width="7.43" height="27.51" maskUnits="userSpaceOnUse"><g class="cls-3"><path class="cls-4" d="M574.32,663.84v23.79s0,3.72,3.71,3.72,3.72-3.72,3.72-3.72V663.84Z"/></g></mask><linearGradient id="linear-gradient-28" x1="547.67" y1="698.59" x2="547.67" y2="651.17" gradientTransform="translate(30.36)" gradientUnits="userSpaceOnUse"><stop offset="0" stop-color="#40cde6"/><stop offset="0.2" stop-color="#e64093"/><stop offset="1" stop-color="#ff36b2"/></linearGradient><linearGradient id="linear-gradient-29" x1="908.28" y1="616.69" x2="341.41" y2="616.69" xlink:href="#linear-gradient-23"/><linearGradient id="linear-gradient-30" x1="908.28" y1="701.61" x2="341.41" y2="701.61" xlink:href="#linear-gradient-23"/><filter id="luminosity-noclip-17" x="663.55" y="535.28" width="48.63" height="77.76" filterUnits="userSpaceOnUse" color-interpolation-filters="sRGB"><feFlood flood-color="#fff" result="bg"/><feBlend in="SourceGraphic" in2="bg"/></filter><mask id="mask-17" x="663.55" y="535.28" width="48.63" height="77.76" maskUnits="userSpaceOnUse"><g class="cls-5"><path class="cls-6" d="M711.29,603.2l-17.73-30.85-.25-.38V540.23h1.29v-5H681.13v5h1.29V572c-.08.13-.18.25-.25.38L664.44,603.2a6.56,6.56,0,0,0,5.69,9.84H705.6A6.56,6.56,0,0,0,711.29,603.2Z"/></g></mask><linearGradient id="linear-gradient-31" x1="687.86" y1="628.79" x2="687.86" y2="462.31" xlink:href="#linear-gradient-23"/><filter id="luminosity-noclip-18" x="597.3" y="543.45" width="55.2" height="69.59" filterUnits="userSpaceOnUse" color-interpolation-filters="sRGB"><feFlood flood-color="#fff" result="bg"/><feBlend in="SourceGraphic" in2="bg"/></filter><mask id="mask-18" x="597.3" y="543.45" width="55.2" height="69.59" maskUnits="userSpaceOnUse"><g class="cls-7"><path class="cls-8" d="M651.49,604.1l-20.13-28a6.25,6.25,0,0,0-1-1.1V548.39h1.3v-4.94H618.16v4.94h1.3V575a6.72,6.72,0,0,0-1,1.1l-20.13,28c-2.86,4,.73,8.94,6.47,8.94H645C650.76,613,654.35,608.08,651.49,604.1Z"/></g></mask><linearGradient id="linear-gradient-32" x1="624.9" y1="620.24" x2="624.9" y2="478.14" xlink:href="#linear-gradient-23"/><linearGradient id="linear-gradient-33" x1="500.13" y1="700.04" x2="535.43" y2="700.04" gradientTransform="translate(-296.55 391.79) rotate(-32.78)" gradientUnits="userSpaceOnUse"><stop offset="0" stop-color="#40d5e6"/><stop offset="1" stop-color="#57f"/></linearGradient><linearGradient id="linear-gradient-34" x1="508.58" y1="726.35" x2="528.64" y2="726.35" gradientTransform="matrix(1, 0, 0, 1, 0, 0)" xlink:href="#linear-gradient-33"/><linearGradient id="linear-gradient-35" x1="489.46" y1="772.15" x2="549.33" y2="662.36" gradientTransform="translate(-286.78 319.27) rotate(-27.64)" xlink:href="#linear-gradient-33"/><linearGradient id="linear-gradient-36" x1="500.18" y1="777.99" x2="560.04" y2="668.21" gradientTransform="matrix(1, 0, 0, 1, 0, 0)" xlink:href="#linear-gradient-33"/><linearGradient id="linear-gradient-37" x1="624.9" y1="617.47" x2="624.9" y2="588.74" gradientUnits="userSpaceOnUse"><stop offset="0.2" stop-color="#ba3477"/><stop offset="1" stop-color="#ff36b2"/></linearGradient><linearGradient id="linear-gradient-38" x1="687.86" y1="625.77" x2="687.86" y2="568.59" gradientUnits="userSpaceOnUse"><stop offset="0.2" stop-color="#199ccc"/><stop offset="1" stop-color="#3cb555"/></linearGradient><filter id="luminosity-noclip-19" x="543.54" y="550.31" width="44.18" height="62.73" filterUnits="userSpaceOnUse" color-interpolation-filters="sRGB"><feFlood flood-color="#fff" result="bg"/><feBlend in="SourceGraphic" in2="bg"/></filter><mask id="mask-19" x="543.54" y="550.31" width="44.18" height="62.73" maskUnits="userSpaceOnUse"><g class="cls-9"><path class="cls-10" d="M586.92,604.1l-15.84-27.57V555.26h1.29v-5H558.9v5h1.29v21.27L544.34,604.1a6,6,0,0,0,5.18,8.94h32.23A6,6,0,0,0,586.92,604.1Z"/></g></mask><linearGradient id="linear-gradient-39" x1="565.63" y1="629.31" x2="565.63" y2="466.38" xlink:href="#linear-gradient-23"/><linearGradient id="linear-gradient-40" x1="565.63" y1="533.17" x2="565.63" y2="616.44" gradientUnits="userSpaceOnUse"><stop offset="0" stop-color="#40d5e6"/><stop offset="1" stop-color="#3056f0"/></linearGradient><filter id="luminosity-noclip-20" x="632.2" y="625.83" width="40.6" height="66.65" filterUnits="userSpaceOnUse" color-interpolation-filters="sRGB"><feFlood flood-color="#fff" result="bg"/><feBlend in="SourceGraphic" in2="bg"/></filter><mask id="mask-20" x="632.2" y="625.83" width="40.6" height="66.65" maskUnits="userSpaceOnUse"><g class="cls-11"><path class="cls-12" d="M656.54,652.27V629.5h1v-3.67h-10v3.67h1v22.77a20.3,20.3,0,1,0,8.08,0Z"/></g></mask><linearGradient id="linear-gradient-41" x1="652.5" y1="705.29" x2="652.5" y2="573.28" xlink:href="#linear-gradient-23"/><linearGradient id="linear-gradient-42" x1="652.5" y1="687.78" x2="652.5" y2="671.57" xlink:href="#linear-gradient-38"/></defs><title>Health Data Science Center</title><g class="cls-21"><g id="Layer_1" data-name="Layer 1"><rect class="cls-22" width="1920" height="1080"/><rect class="cls-23" x="1094.24" y="984.86" width="676.21" height="12.91"/><rect class="cls-23" x="1028.95" y="713.03" width="436.91" height="121.64" rx="10.64" transform="translate(2021.25 -473.55) rotate(90)"/><rect class="cls-24" x="1020.01" y="709.31" width="436.91" height="121.64" rx="10.64" transform="translate(2008.59 -468.34) rotate(90)"/><rect class="cls-25" x="1183.98" y="559.12" width="106.74" height="422.01" rx="5.94"/><rect class="cls-26" x="1189.06" y="563.34" width="96.57" height="417.79" rx="5.63"/><path class="cls-27" d="M1260.29,634.35l-6.68-8.45V607h-5.17V625.9l-6.68,8.45a.79.79,0,0,0,.63,1.28h17.28A.79.79,0,0,0,1260.29,634.35Z"/><rect class="cls-28" x="1248.44" y="606.97" width="5.16" height="1.64"/><rect class="cls-29" x="1247.9" y="606.16" width="6.25" height="1.74"/><path class="cls-30" d="M1258,633.57l-2.69-3.4c-1.9,1.53-3.92,1.13-6.55.12a4.78,4.78,0,0,0-1.79-.39l-2.91,3.67a.59.59,0,0,0,.47,1h13A.59.59,0,0,0,1258,633.57Z"/><path class="cls-31" d="M1280.34,634.35l-6.68-8.45V607h-5.16V625.9l-6.69,8.45a.79.79,0,0,0,.63,1.28h17.28A.79.79,0,0,0,1280.34,634.35Z"/><rect class="cls-28" x="1268.5" y="606.97" width="5.16" height="1.64"/><rect class="cls-29" x="1267.95" y="606.16" width="6.25" height="1.74"/><path class="cls-32" d="M1278.07,633.57l-2.69-3.4c-1.9,1.53-3.92,1.13-6.55.12a4.78,4.78,0,0,0-1.79-.39l-2.91,3.67a.59.59,0,0,0,.47,1h13A.59.59,0,0,0,1278.07,633.57Z"/><path class="cls-33" d="M1208.67,616.63V597.91h-5.09v18.72a10,10,0,1,0,5.09,0Z"/><rect class="cls-28" x="1203.58" y="597.91" width="5.09" height="1.61"/><path class="cls-29" d="M1209.21,599H1203a1.07,1.07,0,0,1-1.07-1.07h0a1.07,1.07,0,0,1,1.07-1.07h6.17a1.07,1.07,0,0,1,1.07,1.07h0A1.07,1.07,0,0,1,1209.21,599Z"/><path class="cls-34" d="M1197.74,627.42a8.44,8.44,0,0,0,16.73,0Z"/><path class="cls-35" d="M1231.21,616.63V597.91h-5.1v18.72a10,10,0,1,0,5.1,0Z"/><rect class="cls-28" x="1226.11" y="597.91" width="5.09" height="1.61"/><path class="cls-29" d="M1231.74,599h-6.16a1.07,1.07,0,0,1-1.08-1.07h0a1.07,1.07,0,0,1,1.08-1.07h6.16a1.07,1.07,0,0,1,1.07,1.07h0A1.07,1.07,0,0,1,1231.74,599Z"/><path class="cls-34" d="M1220.28,627.42a8.43,8.43,0,0,0,16.72,0Z"/><path class="cls-36" d="M1194.84,680.56h11.06a2.4,2.4,0,0,1,2.4,2.4v19.26a0,0,0,0,1,0,0h-15.87a0,0,0,0,1,0,0V683A2.4,2.4,0,0,1,1194.84,680.56Z"/><rect class="cls-36" x="1195.69" y="679.03" width="9.36" height="3.66"/><rect class="cls-29" x="1194.9" y="676.18" width="10.93" height="3.71"/><rect class="cls-29" x="1193.26" y="687.32" width="14.22" height="7.07"/><path class="cls-36" d="M1213.71,680.56h11.06a2.4,2.4,0,0,1,2.4,2.4v19.26a0,0,0,0,1,0,0H1211.3a0,0,0,0,1,0,0V683A2.4,2.4,0,0,1,1213.71,680.56Z"/><rect class="cls-36" x="1214.56" y="679.03" width="9.36" height="3.66"/><rect class="cls-29" x="1213.77" y="676.18" width="10.93" height="3.71"/><rect class="cls-29" x="1212.13" y="687.32" width="14.22" height="7.07"/><path class="cls-37" d="M1233.32,680.56h11.06a2.4,2.4,0,0,1,2.4,2.4v19.26a0,0,0,0,1,0,0h-15.87a0,0,0,0,1,0,0V683A2.4,2.4,0,0,1,1233.32,680.56Z"/><rect class="cls-37" x="1234.17" y="679.03" width="9.36" height="3.66"/><rect class="cls-29" x="1233.38" y="676.18" width="10.93" height="3.71"/><rect class="cls-29" x="1231.74" y="687.32" width="14.22" height="7.07"/><rect class="cls-24" x="1182.11" y="634.09" width="112.45" height="4.47"/><rect class="cls-24" x="1182.11" y="701.86" width="112.45" height="4.47"/><rect class="cls-24" x="1182.11" y="769.63" width="112.45" height="4.47"/><polygon class="cls-38" points="1315.42 735.25 1323.36 729.04 1328.2 736.62 1320.38 742.33 1315.42 735.25"/><path class="cls-29" d="M1316.17,734.38l5.83,7.2-4.59,5.83s-7.2,6-8.57,6.21-7.07-3.72-7.07-3.72-6.46-.75-7.33-1.86-1-2.49-.62-2.74,10.93-6.33,10.93-6.33a21,21,0,0,1-2.86.63c-.62,0-3.85-.87-3.6-2.49l7-2.11,8.07-.37Z"/><path class="cls-29" d="M1413.74,637.79s8.67,8.6-7.44,31.61-30.76,40.16-30.76,40.16l-17.29-12.4s23.36-48.86,30.4-57.08S1409.87,633.3,1413.74,637.79Z"/><path class="cls-29" d="M1328.3,739.78l-8.1-10.45s27.5-26.5,34.2-30.17,11.56-4.95,17.34.79.28,17.85-7.46,22.34S1328.3,739.78,1328.3,739.78Z"/><path class="cls-29" d="M1382,881.84h-39.22s4-49.65,13.4-91.36,20.85-97.8,24.33-124.12,10.92-29.29,24.33-30.78S1382,881.84,1382,881.84Z"/><path class="cls-39" d="M1429.8,616.11s5.94-3.17,8.31,2.77-6.73,17.83-15.84,13.07S1426.23,616.11,1429.8,616.11Z"/><path class="cls-39" d="M1395.73,572.93s-16.24,9.9-5.15,29.31,30.1,16.64,33.67,21.4c4-.4,18.22-17.83,13.47-38.83C1433,569.76,1410.38,558.67,1395.73,572.93Z"/><polygon class="cls-38" points="1419.89 927.08 1419.89 951.25 1431.38 951.25 1437.32 913.61 1419.89 927.08"/><polygon class="cls-38" points="1362.06 926.68 1360.47 955.21 1373.54 950.85 1379.48 913.22 1362.06 926.68"/><path class="cls-38" d="M1360.68,952.55s.25,5.59-1,8.38-7.43,14-10.48,15.5-5,4.58-5.71,4.58.44-.26,4.51-.77,5.84,1.28,10.92-1.52,5.34-6.35,7.12-8.13,6.6-3.05,8.13-4.32-1.27-7.11-1.27-7.11l1-9.66Z"/><path class="cls-40" d="M1366.72,986.6a36.44,36.44,0,0,0,4.12-4.58v4.58H1376c.13-3.63.62-19.18-.28-20.08s-3.57.73-5.84,1.53c-4.32,1.52-9.91,9.91-9.91,9.91-.64-7.62-6-8.2-6-8.2-11.79,10.29-12.83,9-17.66,12.77-2.92,2.31-3.42,3.49-3.36,4.07Z"/><path class="cls-41" d="M1384.44,720.45s-7.25,25.15,6.86,48.78c4.57,3-.38,1.14-.38,1.14l25.15-43.83-32.78-6.48"/><path class="cls-38" d="M1419.88,947.72s-2.54,14.23-3.05,16.52-10.16,18-10.16,18h22.87a207.84,207.84,0,0,0,1.52-20.84c.25-11.43.51-20.07.51-20.07Z"/><path class="cls-32" d="M1382.54,729.93s.89,2-.89-6-5.78-29.77-7.11-44,17.62-32.16,17.62-32.16,3.71-9.61,9.93-11.39,24-1.78,24-1.78,25.34-.44,30.67,16c6.08,9.78-7.21,36.3-8.89,39.56-19,36.86-9.7,39.28-10.2,39.91,0,0-20.65,9.59-36.65,8.26S1382.54,729.93,1382.54,729.93Z"/><path class="cls-42" d="M1404,614.33s4.22,16.45-3.78,24c1.34,3.11,6.22,7.78,14.67,5.56s11.11-6,12-8c-.22-3.33-3.78-14.45-2.67-25.78Z"/><path class="cls-38" d="M1391.67,587.64a114.52,114.52,0,0,0-1.19,21.62,13.09,13.09,0,0,0,18.39,11.29,32.28,32.28,0,0,0,10.64-7.3c7.69-8.32,9.93-22.41,6.41-31s-19.85-9-25-7S1392,584.12,1391.67,587.64Z"/><path class="cls-38" d="M1421.21,604.23s6.07-6.62,8.56-1.66-10.21,12.14-10.49,8.55A12.48,12.48,0,0,1,1421.21,604.23Z"/><path class="cls-40" d="M1428.22,986.6a9.9,9.9,0,0,0,.55-1.78l.24,1.78h3.45l-1.4-23.63-1.78,15.75a27.86,27.86,0,0,0-11.18-5.84c-6.86-1.78-11.18,6.09-11.18,6.09a20.81,20.81,0,0,0-3.94,7.63Z"/><path class="cls-43" d="M1439.7,727.69"/><path class="cls-39" d="M1409,600a1.77,1.77,0,1,1-1.77-1.77A1.76,1.76,0,0,1,1409,600Z"/><path class="cls-39" d="M1397.1,599.67a1.77,1.77,0,1,1-1.76-1.77A1.76,1.76,0,0,1,1397.1,599.67Z"/><path class="cls-44" d="M1398.32,611.64l7.87-.51a3.92,3.92,0,0,1-4.09,3.68C1398.21,614.81,1398.32,611.64,1398.32,611.64Z"/><path class="cls-29" d="M1401.38,612.56a3.73,3.73,0,0,0,2.71-1.3l-5.14.34C1399.17,612.08,1399.76,612.68,1401.38,612.56Z"/><path class="cls-39" d="M1406.19,595.08a6.08,6.08,0,0,1,4.7.56c.46-.1.11-1.38-1.12-1.69S1405.78,593.8,1406.19,595.08Z"/><path class="cls-39" d="M1394,594.87a6.08,6.08,0,0,1,4.7.56c.46-.1.11-1.38-1.12-1.68S1393.61,593.59,1394,594.87Z"/><path class="cls-45" d="M1413.35,606.26a2.35,2.35,0,1,1-2.34-2.18A2.27,2.27,0,0,1,1413.35,606.26Z"/><path class="cls-45" d="M1395.82,606.26a2.35,2.35,0,1,1-2.34-2.18A2.27,2.27,0,0,1,1395.82,606.26Z"/><path class="cls-44" d="M1401,604.58s-1.65,3.82-1.4,4.32,2-.25,2-.25S1402.22,604.84,1401,604.58Z"/><path class="cls-39" d="M1394.47,570.16s-11.43,7.36-7.62,21.34c4.76-13,8.38-13.47,8.38-13.47s6.61-1,11.18,10.93,6.86,16.77,14.49,18.55,12.7,2.54,12.7,2.54,6.35-18.8.51-30.24S1407.68,559.48,1394.47,570.16Z"/><path class="cls-46" d="M1425,611.11a1.67,1.67,0,1,1-1.66-1.67A1.66,1.66,0,0,1,1425,611.11Z"/><path class="cls-47" d="M1382.54,729.93c.63-4-20.09,115.94-26.63,199.53,11.29,0,81,9.11,101.61.39,2.38-17.43,9.51-126.76-6.33-168.75-11.89-24.56-13.52-31-13.52-31Z"/><path class="cls-29" d="M1426.09,634.63s8,3.43-3.93,24.29-19.36,153.41,21.35,223.91h42.2s-15.88-101.28-25.81-143,3.47-72.48,1.49-86.88S1438,634.67,1426.09,634.63Z"/><polygon class="cls-38" points="1404.29 691 1411.3 694.6 1405.53 704.65 1398.46 699.63 1404.29 691"/><path class="cls-29" d="M1399.57,700.43l4.72-9.43s-9.18-9.68-11.42-9.68h-21.6s-.37,2.73,4,2.73h9.93l-9.06,1-4.47,2.24s1,1.24,4,.62a12,12,0,0,1,2.61-.37l7.94-.25-4.84,2a2.45,2.45,0,0,0-.25,2.73c.87.38,1.61.63,1.61.63a3.37,3.37,0,0,0-.86,2.48c.24,1.24,4,2.6,4.71,2.23a2.74,2.74,0,0,0,1.12-1.12,15.53,15.53,0,0,0,6.58,3A30.72,30.72,0,0,1,1399.57,700.43Z"/><path class="cls-29" d="M1450.06,639.65s13.66,1,16.69,32.37,3,56.64,3,56.64l-23.77,2s-15.68-58.66-15.68-70.8S1443.49,638.64,1450.06,639.65Z"/><path class="cls-29" d="M1402.06,704.84l6.63-13.27S1454.18,709,1461.15,714s10.61,9.29,7.63,17.91-17.91,9-26.21,3.32S1402.06,704.84,1402.06,704.84Z"/><path class="cls-48" d="M1446.77,656.06s-4,26.1-1.76,48.65A117.21,117.21,0,0,1,1446.77,656.06Z"/><path class="cls-48" d="M1445.56,706.7s11.61,5.31,16.25,15.93A21,21,0,0,0,1445.56,706.7Z"/><path class="cls-24" d="M1180.13,829.41h18.19a2.24,2.24,0,0,0,2.19-1.77L1216,756.27a2.24,2.24,0,0,0-2.19-2.72h-18.2a2.25,2.25,0,0,0-2.19,1.76l-15.51,71.38A2.24,2.24,0,0,0,1180.13,829.41Z"/><path class="cls-49" d="M1183.11,829.41h18.19a2.25,2.25,0,0,0,2.19-1.77L1219,756.27a2.24,2.24,0,0,0-2.19-2.72h-18.2a2.25,2.25,0,0,0-2.19,1.76l-15.51,71.38A2.24,2.24,0,0,0,1183.11,829.41Z"/><path class="cls-49" d="M1255.79,804.09H1135.87a2.24,2.24,0,0,1-2.19-1.77L1118.16,731a2.24,2.24,0,0,1,2.19-2.72h119.92a2.25,2.25,0,0,1,2.2,1.76L1258,801.37A2.24,2.24,0,0,1,1255.79,804.09Z"/><path class="cls-24" d="M1258.52,804.09H1138.6a2.25,2.25,0,0,1-2.19-1.77L1120.89,731a2.24,2.24,0,0,1,2.19-2.72H1243a2.25,2.25,0,0,1,2.2,1.76l15.51,71.38A2.24,2.24,0,0,1,1258.52,804.09Z"/><path class="cls-32" d="M1139.43,789h113.18a1.68,1.68,0,0,0,1.64-2l-11.78-54.18a2.07,2.07,0,0,0-2-1.63H1128.08a2.07,2.07,0,0,0-2,2.51l11.74,54A1.68,1.68,0,0,0,1139.43,789Z"/><path class="cls-29" d="M1245.17,775.45h-.84l-1.46-6.28a8.82,8.82,0,0,0-8.06-6.59l-.16,0a10,10,0,0,1-9.16-7.43L1224,748.9h.84l1.45,6.28a8.83,8.83,0,0,0,8.06,6.59l.16,0a9.94,9.94,0,0,1,9.16,7.43Z"/><path class="cls-29" d="M1231,775.45h-.83l-1.46-6.28c-1-4.1,1.61-7.43,5.71-7.43l.18,0c3.6,0,5.84-3,5-6.59l-1.46-6.28h.84l1.45,6.28c1,4.1-1.61,7.43-5.7,7.43l-.18,0c-3.6,0-5.84,3-5,6.59Z"/><polygon class="cls-30" points="1236.97 751.41 1227.13 751.41 1226.82 750.05 1236.66 750.05 1236.97 751.41"/><polygon class="cls-30" points="1237.63 754.24 1227.79 754.24 1227.47 752.87 1237.31 752.87 1237.63 754.24"/><polygon class="cls-30" points="1238.29 757.06 1228.44 757.06 1228.13 755.7 1237.97 755.7 1238.29 757.06"/><polygon class="cls-36" points="1240.86 768.16 1231.02 768.16 1230.7 766.8 1240.54 766.8 1240.86 768.16"/><polygon class="cls-36" points="1241.51 770.99 1231.67 770.99 1231.36 769.62 1241.2 769.62 1241.51 770.99"/><polygon class="cls-36" points="1242.17 773.81 1232.33 773.81 1232.01 772.45 1241.85 772.45 1242.17 773.81"/><path class="cls-29" d="M1224.15,781.82h-78.66l-9.32-40.15h78.67Zm-78.13-.7h77.26l-9-38.75H1137Z"/><polygon class="cls-29" points="1151.79 749.77 1143.1 749.77 1142.66 747.89 1151.35 747.89 1151.79 749.77"/><polygon class="cls-29" points="1172.38 754.52 1144.2 754.52 1143.77 752.65 1171.94 752.65 1172.38 754.52"/><polygon class="cls-29" points="1173.31 758.52 1145.13 758.52 1144.69 756.64 1172.87 756.64 1173.31 758.52"/><polygon class="cls-29" points="1174.23 762.51 1146.05 762.51 1145.62 760.63 1173.8 760.63 1174.23 762.51"/><polygon class="cls-29" points="1163.01 766.5 1146.98 766.5 1146.54 764.62 1162.57 764.62 1163.01 766.5"/><polygon class="cls-36" points="1172.64 777.65 1149.74 777.65 1147.9 769.73 1170.8 769.73 1172.64 777.65"/><polygon class="cls-36" points="1214.44 764.27 1178.87 764.27 1175.03 747.71 1210.6 747.71 1214.44 764.27"/><polygon class="cls-48" points="1185.76 775.01 1181.89 775.01 1180.99 771.14 1184.86 771.14 1185.76 775.01"/><polygon class="cls-48" points="1195.27 775.01 1191.4 775.01 1190.5 771.14 1194.37 771.14 1195.27 775.01"/><polygon class="cls-48" points="1204.78 775.01 1200.91 775.01 1200.01 771.14 1203.88 771.14 1204.78 775.01"/><polygon class="cls-48" points="1214.29 775.01 1210.42 775.01 1209.52 771.14 1213.39 771.14 1214.29 775.01"/><path class="cls-50" d="M1487.83,712.66h0a8.94,8.94,0,0,1,8.93-8.94h22a8.94,8.94,0,0,1,8.94,8.94v52.88"/><path class="cls-50" d="M1528.66,752.26h33.76a8.93,8.93,0,0,1,8.94,8.93v14.9"/><path class="cls-51" d="M1588.9,803.91l-13-16.42V783.8h-10v3.69l-13,16.42a1.54,1.54,0,0,0,1.21,2.5h33.61A1.54,1.54,0,0,0,1588.9,803.91Z"/><rect class="cls-28" x="1565.87" y="783.8" width="10.04" height="3.19"/><rect class="cls-29" x="1564.81" y="782.23" width="12.16" height="3.39"/><path class="cls-30" d="M1584.49,802.39l-5.23-6.6c-3.7,3-7.64,2.19-12.74.23a9.65,9.65,0,0,0-3.49-.76l-5.65,7.13a1.16,1.16,0,0,0,.91,1.88h25.29A1.16,1.16,0,0,0,1584.49,802.39Z"/><polygon class="cls-52" points="1539.9 772.03 1543.31 772.03 1539.9 775.43 1539.9 801.35 1515.82 801.35 1515.82 772.03 1539.9 772.03"/><rect class="cls-34" x="1518.44" y="786.51" width="19.37" height="12.74" transform="translate(3056.25 1585.77) rotate(180)"/><path class="cls-53" d="M1535.28,797h0a.78.78,0,0,0,.78-.78V776.48a.78.78,0,0,0-.78-.79h0a.79.79,0,0,0-.79.79V796.2A.79.79,0,0,0,1535.28,797Z"/><path class="cls-54" d="M1490.75,743.32V719h-6.62v24.33a13.05,13.05,0,1,0,6.62,0Z"/><rect class="cls-28" x="1484.13" y="718.99" width="6.62" height="2.09"/><path class="cls-29" d="M1491.45,720.38h-8A1.4,1.4,0,0,1,1482,719h0a1.4,1.4,0,0,1,1.4-1.4h8a1.4,1.4,0,0,1,1.4,1.4h0A1.4,1.4,0,0,1,1491.45,720.38Z"/><path class="cls-34" d="M1476.55,757.34a11,11,0,0,0,21.74,0Z"/><rect class="cls-55" x="1481.25" y="722.22" width="28.05" height="2.48"/><rect class="cls-55" x="1471.07" y="800.91" width="77.95" height="4.96"/><rect class="cls-55" x="1506.44" y="700.37" width="3.72" height="102.03"/><rect class="cls-55" x="1548.52" y="749.06" width="3.72" height="58.37"/><path class="cls-55" d="M1512.77,723.46a4.47,4.47,0,1,1-4.46-4.47A4.47,4.47,0,0,1,1512.77,723.46Z"/><path class="cls-56" d="M1510.54,723.46a2.24,2.24,0,1,1-2.23-2.23A2.23,2.23,0,0,1,1510.54,723.46Z"/><path class="cls-55" d="M1512.77,765.16a4.47,4.47,0,1,1-4.46-4.46A4.47,4.47,0,0,1,1512.77,765.16Z"/><path class="cls-56" d="M1510.54,765.16a2.24,2.24,0,1,1-2.23-2.23A2.23,2.23,0,0,1,1510.54,765.16Z"/><rect class="cls-55" x="1477.52" y="720.73" width="18.37" height="5.21"/><rect class="cls-56" x="1505.33" y="699.38" width="5.96" height="9.18"/><rect class="cls-56" x="1547.22" y="748.35" width="5.96" height="9.19"/><path class="cls-57" d="M1435.1,804.71l-8.69-11V769.11h-6.71v24.61l-8.68,11a1,1,0,0,0,.8,1.67h22.47A1,1,0,0,0,1435.1,804.71Z"/><rect class="cls-28" x="1419.7" y="769.11" width="6.71" height="2.13"/><rect class="cls-29" x="1418.99" y="768.06" width="8.13" height="2.26"/><path class="cls-30" d="M1432.15,803.69l-3.5-4.42c-2.47,2-5.1,1.47-8.51.16a6.51,6.51,0,0,0-2.34-.51l-3.77,4.77a.78.78,0,0,0,.61,1.26h16.9A.78.78,0,0,0,1432.15,803.69Z"/><path class="cls-58" d="M1461.16,804.71l-8.68-11V769.11h-6.71v24.61l-8.69,11a1,1,0,0,0,.81,1.67h22.46A1,1,0,0,0,1461.16,804.71Z"/><rect class="cls-28" x="1445.77" y="769.11" width="6.71" height="2.13"/><rect class="cls-29" x="1445.06" y="768.06" width="8.13" height="2.26"/><path class="cls-32" d="M1458.21,803.69l-3.49-4.42c-2.48,2-5.1,1.47-8.51.16a6.51,6.51,0,0,0-2.34-.51l-3.78,4.77a.78.78,0,0,0,.61,1.26h16.91A.78.78,0,0,0,1458.21,803.69Z"/><rect class="cls-37" x="1307.85" y="782.29" width="12.54" height="1.49"/><rect class="cls-24" x="1307.85" y="785.89" width="12.78" height="3.72"/><rect class="cls-37" x="1306.48" y="784.15" width="15.89" height="2.48"/><rect class="cls-24" x="1292.71" y="783.41" width="33.76" height="1.37"/><rect class="cls-24" x="1311.23" y="750.83" width="6.52" height="2.61"/><rect class="cls-24" x="1312.32" y="719.86" width="4.59" height="15.64"/><rect class="cls-37" x="1311.76" y="719.86" width="5.71" height="2.61"/><rect class="cls-37" x="1310.46" y="726.81" width="8.32" height="24.7"/><rect class="cls-37" x="1310.33" y="753" width="8.25" height="1.24"/><path class="cls-59" d="M1310.58,792.47a23.46,23.46,0,0,1,0-46.92v-10.8a34.26,34.26,0,1,0,0,68.52Z"/><polygon class="cls-37" points="1338.76 804.14 1338.76 796.94 1326.59 789 1301.02 789 1301.02 804.14 1338.76 804.14"/><rect class="cls-24" x="1296.31" y="801.9" width="48.66" height="5.96"/><rect class="cls-49" x="1331.8" y="801.9" width="13.16" height="5.96"/><circle class="cls-49" cx="1303.13" cy="797.93" r="6.05"/><path class="cls-37" d="M1306.61,797.93a3.48,3.48,0,1,1-3.48-3.47A3.48,3.48,0,0,1,1306.61,797.93Z"/><path class="cls-49" d="M1295.93,784.28a3.6,3.6,0,1,1-3.6-3.6A3.6,3.6,0,0,1,1295.93,784.28Z"/><path class="cls-37" d="M1294.4,784.28a2.07,2.07,0,1,1-2.07-2.07A2.07,2.07,0,0,1,1294.4,784.28Z"/><path class="cls-49" d="M1315.76,740.34a6,6,0,1,1-6-6.05A6.05,6.05,0,0,1,1315.76,740.34Z"/><path class="cls-37" d="M1313.19,740.34a3.48,3.48,0,1,1-3.48-3.48A3.48,3.48,0,0,1,1313.19,740.34Z"/><path class="cls-60" d="M1368,781.67V757.34h-6.62v24.33a13,13,0,1,0,6.62,0Z"/><rect class="cls-28" x="1361.38" y="757.34" width="6.62" height="2.09"/><path class="cls-29" d="M1368.7,758.74h-8a1.4,1.4,0,0,1-1.39-1.4h0a1.39,1.39,0,0,1,1.39-1.39h8a1.39,1.39,0,0,1,1.39,1.39h0A1.4,1.4,0,0,1,1368.7,758.74Z"/><path class="cls-34" d="M1353.79,795.7a11,11,0,0,0,21.74,0Z"/><path class="cls-61" d="M1397.29,781.67V757.34h-6.62v24.33a13,13,0,1,0,6.62,0Z"/><rect class="cls-28" x="1390.67" y="757.34" width="6.62" height="2.09"/><path class="cls-29" d="M1398,758.74h-8a1.4,1.4,0,0,1-1.39-1.4h0A1.39,1.39,0,0,1,1390,756h8a1.39,1.39,0,0,1,1.39,1.39h0A1.4,1.4,0,0,1,1398,758.74Z"/><path class="cls-34" d="M1383.08,795.7a11,11,0,0,0,21.75,0Z"/><rect class="cls-24" x="1118.07" y="811.34" width="393.22" height="177.25"/><rect class="cls-49" x="1118.07" y="811.34" width="393.22" height="8.19"/><rect class="cls-49" x="1511.28" y="811.34" width="80.43" height="177.25" transform="translate(3103 1799.92) rotate(180)"/><rect class="cls-56" x="1278.93" y="805.38" width="323.21" height="5.96"/><rect class="cls-55" x="1518.92" y="805.38" width="83.22" height="5.96"/><rect class="cls-62" x="1653.28" y="754.24" width="10.43" height="56.6"/><rect class="cls-63" x="1663.71" y="754.24" width="12.41" height="56.6" transform="translate(3339.82 1565.08) rotate(180)"/><rect class="cls-64" x="1669.66" y="754.24" width="10.43" height="56.6"/><rect class="cls-65" x="1680.09" y="754.24" width="12.41" height="56.6" transform="translate(3372.59 1565.08) rotate(180)"/><rect class="cls-66" x="1687.04" y="754.24" width="10.43" height="56.6"/><rect class="cls-67" x="1697.47" y="754.24" width="12.41" height="56.6" transform="translate(3407.34 1565.08) rotate(180)"/><rect class="cls-39" x="1704.91" y="754.24" width="10.43" height="56.6"/><rect class="cls-68" x="1715.34" y="754.24" width="12.41" height="56.6" transform="translate(3443.09 1565.08) rotate(180)"/><rect class="cls-69" x="1628.45" y="809.85" width="127.35" height="180.22"/><rect class="cls-55" x="1716.83" y="809.85" width="38.97" height="180.22"/><rect class="cls-56" x="1626.47" y="842.12" width="85.89" height="45.18"/><rect class="cls-56" x="1626.47" y="816.8" width="85.89" height="22.84"/><rect class="cls-56" x="1626.47" y="890.28" width="85.89" height="45.18"/><rect class="cls-56" x="1626.47" y="938.44" width="85.89" height="45.18"/><rect class="cls-23" x="1488.45" y="535.04" width="257.18" height="153.91" rx="8.14"/><rect class="cls-24" x="1533.63" y="474.72" width="156.39" height="260.66" rx="12.2" transform="translate(2216.87 -1006.78) rotate(90)"/><rect class="cls-55" x="1488.94" y="534.3" width="245.76" height="141.5" rx="7.51"/><circle class="cls-24" cx="1540.33" cy="591.64" r="24.58" transform="translate(-108.98 641) rotate(-22.73)"/><circle class="cls-24" cx="1554.97" cy="644.52" r="11.92"/><path class="cls-24" d="M1599.16,575.51a7.45,7.45,0,1,1-7.45-7.45A7.44,7.44,0,0,1,1599.16,575.51Z"/><line class="cls-70" x1="1542.56" y1="608.27" x2="1553.49" y2="640.05"/><line class="cls-70" x1="1550.01" y1="588.41" x2="1591.71" y2="575.51"/><path class="cls-24" d="M1516.25,562.35a4.22,4.22,0,1,1-4.22-4.22A4.22,4.22,0,0,1,1516.25,562.35Z"/><line class="cls-70" x1="1511.28" y1="562.6" x2="1535.61" y2="579.48"/><rect class="cls-24" x="1612.17" y="550.11" width="53.13" height="76.33"/><rect class="cls-29" x="1618.15" y="557.59" width="39.29" height="15.71"/><rect class="cls-71" x="1618.15" y="577.8" width="39.29" height="4.49"/><rect class="cls-71" x="1618.15" y="585.03" width="39.29" height="4.49"/><rect class="cls-71" x="1618.15" y="592.26" width="39.29" height="4.49"/><rect class="cls-72" x="1618.15" y="600.62" width="17.4" height="18.52"/><rect class="cls-72" x="1638.17" y="600.43" width="19.08" height="2.81"/><rect class="cls-72" x="1638.17" y="606.42" width="19.08" height="2.81"/><rect class="cls-24" x="1612.1" y="635.89" width="6.92" height="2"/><rect class="cls-24" x="1612.1" y="640.94" width="22.45" height="2"/><rect class="cls-24" x="1612.1" y="645.18" width="22.45" height="2"/><rect class="cls-24" x="1612.1" y="649.42" width="22.45" height="2"/><rect class="cls-24" x="1612.1" y="653.66" width="12.77" height="2"/><rect class="cls-24" x="1507.84" y="620.25" width="6.92" height="2"/><rect class="cls-24" x="1507.84" y="625.3" width="22.45" height="2"/><rect class="cls-24" x="1507.84" y="629.54" width="22.45" height="2"/><rect class="cls-24" x="1507.84" y="633.78" width="22.45" height="2"/><rect class="cls-24" x="1507.84" y="638.03" width="12.77" height="2"/><rect class="cls-24" x="1683.1" y="560.43" width="6.92" height="2"/><rect class="cls-24" x="1683.1" y="565.48" width="22.45" height="2"/><rect class="cls-24" x="1683.1" y="569.72" width="22.45" height="2"/><rect class="cls-24" x="1683.1" y="573.96" width="22.45" height="2"/><rect class="cls-24" x="1683.1" y="578.2" width="12.77" height="2"/><rect class="cls-70" x="1673.64" y="550.68" width="50.15" height="52.63" rx="3.91"/><rect class="cls-24" x="1683.07" y="585.44" width="31.78" height="11.42"/><path class="cls-24" d="M1713.59,631c-.56,0-1,.51-1.31,1.26h-2.2a14.42,14.42,0,0,0-3.33-8.06l1.55-1.55a1.6,1.6,0,0,0,1.82,0c.59-.59.28-1.87-.71-2.86s-2.27-1.3-2.86-.7a1.6,1.6,0,0,0,0,1.82l-1.55,1.54a14.42,14.42,0,0,0-8.06-3.33v-2.2c.75-.26,1.26-.75,1.26-1.31,0-.84-1.13-1.52-2.52-1.52s-2.53.68-2.53,1.52c0,.56.52,1,1.27,1.31v2.2a14.45,14.45,0,0,0-8.07,3.33l-1.55-1.54a1.58,1.58,0,0,0,0-1.82c-.6-.6-1.88-.28-2.86.7s-1.31,2.27-.71,2.86a1.6,1.6,0,0,0,1.82,0l1.55,1.55a14.43,14.43,0,0,0-3.34,8.06H1679c-.26-.75-.75-1.26-1.31-1.26-.85,0-1.53,1.13-1.53,2.52s.68,2.53,1.53,2.53c.56,0,1-.51,1.31-1.26h2.19a14.46,14.46,0,0,0,3.34,8.06L1683,644.4a1.6,1.6,0,0,0-1.82,0c-.6.6-.28,1.88.71,2.87s2.26,1.3,2.86.7a1.58,1.58,0,0,0,0-1.82l1.55-1.55a14.46,14.46,0,0,0,8.07,3.34v2.19c-.75.27-1.27.75-1.27,1.32,0,.84,1.13,1.52,2.53,1.52s2.52-.68,2.52-1.52c0-.57-.51-1.05-1.26-1.32V648a14.43,14.43,0,0,0,8.06-3.34l1.55,1.55a1.6,1.6,0,0,0,0,1.82c.59.6,1.87.28,2.86-.7s1.3-2.27.71-2.87a1.6,1.6,0,0,0-1.82,0l-1.55-1.55a14.45,14.45,0,0,0,3.33-8.06h2.2c.26.75.75,1.26,1.31,1.26.84,0,1.52-1.13,1.52-2.53S1714.43,631,1713.59,631Z"/><path class="cls-24" d="M1724.74,659.45c-.2,0-.37.18-.46.44h-.77a5,5,0,0,0-1.16-2.81l.54-.54a.56.56,0,0,0,.64,0c.2-.21.09-.66-.25-1s-.79-.45-1-.25a.56.56,0,0,0,0,.64l-.54.54a5,5,0,0,0-2.81-1.16v-.77c.26-.09.44-.26.44-.46s-.4-.53-.88-.53-.88.24-.88.53.17.37.44.46v.77a5.05,5.05,0,0,0-2.82,1.16l-.54-.54a.56.56,0,0,0,0-.64c-.21-.2-.65-.09-1,.25s-.45.79-.24,1a.55.55,0,0,0,.63,0l.54.54a5,5,0,0,0-1.16,2.81h-.77c-.09-.26-.26-.44-.45-.44s-.54.4-.54.88.24.88.54.88.36-.17.45-.44h.77a5.05,5.05,0,0,0,1.16,2.82l-.54.54a.55.55,0,0,0-.63,0c-.21.21-.1.65.24,1s.79.45,1,.24a.55.55,0,0,0,0-.63l.54-.54a5.05,5.05,0,0,0,2.82,1.16v.77c-.27.09-.44.26-.44.46s.39.53.88.53.88-.24.88-.53-.18-.37-.44-.46v-.77a5,5,0,0,0,2.81-1.16l.54.54a.55.55,0,0,0,0,.63c.21.21.66.1,1-.24s.45-.79.25-1a.56.56,0,0,0-.64,0l-.54-.54a5.05,5.05,0,0,0,1.16-2.82h.77c.09.27.26.44.46.44s.53-.39.53-.88S1725,659.45,1724.74,659.45Z"/><rect class="cls-72" x="1577.32" y="596.86" width="24.33" height="14.89"/><rect class="cls-72" x="1577.32" y="620.69" width="24.33" height="14.89"/><rect class="cls-26" x="1135.09" y="494.81" width="242.25" height="25.39"/><path class="cls-24" d="M1141.57,520.2h229.29a0,0,0,0,1,0,0V527a4.79,4.79,0,0,1-4.79,4.79h-219.7a4.79,4.79,0,0,1-4.79-4.79V520.2A0,0,0,0,1,1141.57,520.2Z"/><rect class="cls-26" x="1594.99" y="697.91" width="37.29" height="53.16"/><rect class="cls-24" x="1640.21" y="697.12" width="57.92" height="24.59"/><g class="cls-73"><path class="cls-74" d="M567.77,640H557.44v1.2h.68V688s0,4.48,4.48,4.48,4.49-4.48,4.49-4.48V641.21h.68Z"/></g><g class="cls-75"><path class="cls-76" d="M558.89,658v29.68s0,3.72,3.71,3.72,3.72-3.72,3.72-3.72V658Z"/></g><g class="cls-77"><path class="cls-78" d="M598.64,631.49H588.3v1.19H589V688s0,4.48,4.49,4.48S598,688,598,688V632.68h.69Z"/></g><g class="cls-79"><path class="cls-80" d="M589.75,652.92v34.71s0,3.72,3.72,3.72,3.71-3.72,3.71-3.72V652.92Z"/></g><g class="cls-81"><path class="cls-82" d="M583.2,648.38H572.87v1.19h.68V688s0,4.48,4.48,4.48,4.49-4.48,4.49-4.48V649.57h.68Z"/></g><g class="cls-83"><path class="cls-84" d="M574.32,663.84v23.79s0,3.72,3.71,3.72,3.72-3.72,3.72-3.72V663.84Z"/></g><rect class="cls-85" x="508.58" y="613.04" width="232.63" height="7.3"/><rect class="cls-86" x="508.58" y="697.96" width="232.63" height="7.3"/><g class="cls-87"><path class="cls-88" d="M711.29,603.2l-17.73-30.85-.25-.38V540.23h1.29v-5H681.13v5h1.29V572c-.08.13-.18.25-.25.38L664.44,603.2a6.56,6.56,0,0,0,5.69,9.84H705.6A6.56,6.56,0,0,0,711.29,603.2Z"/></g><g class="cls-89"><path class="cls-90" d="M651.49,604.1l-20.13-28a6.25,6.25,0,0,0-1-1.1V548.39h1.3v-4.94H618.16v4.94h1.3V575a6.72,6.72,0,0,0-1,1.1l-20.13,28c-2.86,4,.73,8.94,6.47,8.94H645C650.76,613,654.35,608.08,651.49,604.1Z"/></g><polygon class="cls-91" points="214.92 861.38 188.09 991.09 182.18 991.09 204.93 861.1 214.92 861.38"/><polygon class="cls-91" points="244.19 861.38 217.36 991.09 211.45 991.09 234.2 861.1 244.19 861.38"/><polygon class="cls-91" points="291.53 861.38 318.36 991.09 324.26 991.09 301.51 861.1 291.53 861.38"/><path class="cls-92" d="M316.92,862.43H201.31s-8.05-.18-13.44-24c-6.07-26.83-18.32-116.45-18.32-116.45s3.25-8.34,54.07-7.28l91,118.08S317.73,851.35,316.92,862.43Z"/><path class="cls-93" d="M432.85,956s3.8,5.76,6.61,7.76,17.66,10.17,20.21,10.58,16.06,1.87,16.86,6.42-10.17,6.82-23.55,6.16-32,1.7-33.73.11-2.67-11.89-1.2-18.45a41.49,41.49,0,0,0,.8-12.38Z"/><path class="cls-94" d="M459.67,974.32a26.18,26.18,0,0,1-16.46,2.81c-9.5-1.48-22.3-3.48-25.87-2.28,0,0-.23,9.73,1.91,12.16s28-.27,29.84-.23,28,2.79,27.44-6C476.53,980.74,479.07,976.19,459.67,974.32Z"/><path class="cls-93" d="M364.46,951.77s1.14,5.42,2.21,7.29,9.1,16.06,12.31,17.13,14.31,2.27,13,8-24.89,5.75-27.5,1.07-22.82-20.61-23.75-26.09,4.14-15.93,11.36-19.41C359.55,936.19,364.46,951.77,364.46,951.77Z"/><path class="cls-93" d="M392,984.22c-1.34,5.75-24.89,5.75-27.5,1.07s-22.82-20.61-23.76-26.09c-.41-2.4.33-5.73,1.89-9,2-4.25,5.41-8.42,9.48-10.39,7.48-3.61,12.39,12,12.39,12s1.13,5.42,2.21,7.29,9.1,16.06,12.31,17.13S393.29,978.46,392,984.22Z"/><path class="cls-94" d="M392,984.22c-1.34,5.75-24.89,5.75-27.5,1.07s-22.82-20.61-23.76-26.09c-.41-2.4.33-5.73,1.89-9,2.83.22,24.34,24.8,28.76,27a6.87,6.87,0,0,0,7.63-.94C382.19,977.26,393.29,978.46,392,984.22Z"/><path class="cls-95" d="M366.87,753.18s15.05-4.63,19-7.36,30.4,8.37,30.85,10.84a6.91,6.91,0,0,1-.06,3.68l-51.07,3.31Z"/><path class="cls-94" d="M411.2,843.49,390,891.18c-1.48,3.35-2.87,6.46-4.08,9.18-1.41,3.19-2.59,5.83-3.4,7.65-5.62,12.65-15.76,43.76-15.76,43.76s-15.65-2.91-16.25-11.75c0,0,11.54-19.36,11.54-32.81s1.81-53.06,14.65-61.62C392.37,835.14,402.54,833.17,411.2,843.49Z"/><path class="cls-94" d="M296.81,790.59s2.61,2.61,4.82,3.21,39.14,3.41,56.2,9,39.75,9.24,44,14,11.24,31.32,11,36.33S432.08,949.38,434,956c1,3.5-16.05,2.48-16.05,2.48S395,901.59,390.55,892.35c-8.22-17-8.63-37.73-11.64-40.94S342.38,841,323.11,841s-62.43,1.61-67-1S222.93,818.38,235,792.89,296.81,790.59,296.81,790.59Z"/><path class="cls-96" d="M341.85,637.42s-16.27,44.34-27,57.79-6.36-36.44-6.36-36.44S327.11,629.76,341.85,637.42Z"/><path class="cls-96" d="M349.06,634.48s9.79-33-27.67-35.15c-37.09-2.12-23.35,50.24-31.66,59.44s-17.16,16.62-20.17,26.88a54.25,54.25,0,0,0,1,33.11C279.06,743.08,322.26,620.83,349.06,634.48Z"/><path class="cls-93" d="M329.46,607.79c7.15,1.71,21.75,9.81,18.73,29.19a61.24,61.24,0,0,1-4.4,8.48c-2.38,3.6-2.22,16.3-3.32,16.61a27.23,27.23,0,0,1-5.13-.07s-7.82,11.55-12.26,10.14-20.37-9.84-23.73-28S300.59,600.89,329.46,607.79Z"/><path class="cls-93" d="M318.72,664.56s-1.06,1.63-2.46,4.1c-.72,1.26-1.51,2.74-2.3,4.34-2.16,4.41-4.22,9.71-4.07,13.68,0,0-10.89.55-14.64-15.71,0,0,7.74-14.09,6-24.49S318.72,664.56,318.72,664.56Z"/><path class="cls-96" d="M348.19,637s-13.71,4.48-25.53,2.75-22.49,7.88-22.49,7.88-11-26.73,8.07-40.22S357,615.92,348.19,637Z"/><path class="cls-93" d="M318.09,637.83c.58-2.21-.91-6.23-5.39-4.27s-2.67,13.82.58,13.66S317.49,640.12,318.09,637.83Z"/><path class="cls-97" d="M316.26,668.66c-.72,1.26-1.51,2.74-2.3,4.34a51.08,51.08,0,0,1-10-16.94C307.78,662.34,316.26,668.66,316.26,668.66Z"/><path class="cls-98" d="M327.76,729.93c-4.89,9-10.74,7.94-12.48,15.16s.21,8.46-6.75,18.63a58.89,58.89,0,0,0-3.62,6.17l-.39.78c-.62,1.23-1.2,2.47-1.76,3.71-1,2.29.79-2.07,0,0-2.05,5.43-2.35,16.9-2.35,16.9s-41,10-64.85-.29c0,0,13.28-23.28,19.5-31.51s15.26-55.2,16.66-65,14.69-29,25.93-28.57l14.81,10.4s9.91,26.13,12.72,30.15S332.72,720.75,327.76,729.93Z"/><path class="cls-98" d="M293.66,669.35c6.19-.44,19.22,3.44,19.54,20.25s1.2,28.15.67,32.6S312,756.52,312,756.52s13.45-.36,20.69-.49c11-.2,36.11-3.45,36.11-3.45v17.95S309.61,783.36,303.6,781s-11-25.45-13.11-34.48-7.93-45.34-9.42-49.07S277.49,670.49,293.66,669.35Z"/><path class="cls-98" d="M300.41,791.28s-4.29,87.76-8,89.54c-4.9,2.35-51-7.74-62.52-11.09-8.65-2.52-2.79-64.24,5.67-78.74S300.41,791.28,300.41,791.28Z"/><path class="cls-99" d="M390,891.18c-1.48,3.35-2.87,6.46-4.08,9.18-4.55-14.63-4.17-39.08-4.17-39.08A138.74,138.74,0,0,0,390,891.18Z"/><rect class="cls-100" x="391.1" y="723.08" width="2.88" height="30.86" transform="translate(-316.55 295.03) rotate(-29.98)"/><rect class="cls-101" x="390.72" y="763.65" width="10.79" height="227.44"/><rect class="cls-101" x="384.47" y="987.22" width="23.29" height="3.87"/><rect class="cls-101" x="635.76" y="763.65" width="10.79" height="227.44"/><rect class="cls-101" x="629.51" y="987.22" width="23.29" height="3.87"/><rect class="cls-102" x="361.11" y="759.84" width="298.3" height="7.62"/><path class="cls-103" d="M448,715.22V713.7h-9.75v1.52h.58V749a4.3,4.3,0,0,0,8.59,0v-33.8Z"/><path class="cls-103" d="M459.64,715.22V713.7h-9.75v1.52h.58V749a4.3,4.3,0,0,0,8.59,0v-33.8Z"/><path class="cls-103" d="M471.31,715.22V713.7h-9.75v1.52h.58V749a4.3,4.3,0,0,0,8.59,0v-33.8Z"/><path class="cls-100" d="M440.12,725.3v23.44a3,3,0,1,0,5.95,0V725.3Z"/><path class="cls-104" d="M451.79,729.29v19.9s-.12,2.53,3,2.53,3-2.53,3-2.53v-19.9Z"/><path class="cls-105" d="M463.46,722.45v26s-.12,3.3,3,3.3,3-3.3,3-3.3v-26Z"/><rect class="cls-106" x="438.22" y="717.49" width="48.87" height="2.29"/><rect class="cls-106" x="481.9" y="703.82" width="2.79" height="53.12"/><rect class="cls-106" x="477.1" y="756.94" width="12.39" height="2.9"/><rect class="cls-107" x="500.84" y="715.16" width="8.46" height="9.25" transform="translate(470.13 -158.83) rotate(32.78)"/><rect class="cls-107" x="525.36" y="677.09" width="8.46" height="9.25" transform="translate(453.42 -178.17) rotate(32.78)"/><rect class="cls-107" x="528.4" y="674.25" width="6.03" height="9.25" transform="translate(452.09 -179.6) rotate(32.77)"/><rect class="cls-108" x="512.29" y="675.97" width="10.98" height="48.15" transform="translate(461.44 -168.86) rotate(32.78)"/><path class="cls-107" d="M521.33,699.6a3.55,3.55,0,1,1-3.55-3.55A3.54,3.54,0,0,1,521.33,699.6Z"/><path class="cls-109" d="M510.48,746.21l-1.9-4.33c8.93-3.9,14-8.79,15.11-14.54,1.69-8.81-6.06-16.71-6.14-16.8l2.62-4.06c.4.41,10.31,10.52,8.17,21.75C526.93,735.6,520.92,741.65,510.48,746.21Z"/><rect class="cls-110" x="499.31" y="739.61" width="12.57" height="5.91" transform="translate(402.16 -149.81) rotate(27.64)"/><rect class="cls-107" x="495.18" y="735.78" width="12.57" height="1.28" transform="translate(398.92 -148.6) rotate(27.64)"/><rect class="cls-107" x="499.38" y="753.21" width="35.76" height="6.63"/><polygon class="cls-111" points="522.14 753.21 507.95 753.21 512.09 740.65 522.14 739.03 522.14 753.21"/><path class="cls-107" d="M520,744.84a3.57,3.57,0,1,1-3.56-3.57A3.57,3.57,0,0,1,520,744.84Z"/><path class="cls-112" d="M300.3,929.22l-25.57,0a4.7,4.7,0,0,1-4.71-4.7l0-16.12a4.72,4.72,0,0,1,4.7-4.72l25.57,0a4.71,4.71,0,0,1,4.71,4.71l0,16.12A4.71,4.71,0,0,1,300.3,929.22Zm-25.59-22.35a1.55,1.55,0,0,0-1.55,1.55l0,16.13a1.55,1.55,0,0,0,1.55,1.54l25.56,0a1.54,1.54,0,0,0,1.55-1.55l0-16.12a1.55,1.55,0,0,0-1.55-1.55Z"/><rect class="cls-100" x="239.59" y="922.32" width="95.92" height="68.72" transform="translate(-1.1 0.33) rotate(-0.07)"/><path class="cls-113" d="M638.32,608.64H611.47c-3.83,0-6.22-3.32-4.31-6l3.69-5.15h28.09l3.7,5.15C644.55,605.32,642.15,608.64,638.32,608.64Z"/><path class="cls-114" d="M699.69,608.19H676a4.38,4.38,0,0,1-3.8-6.57l8.95-15.54h13.37l8.94,15.54A4.38,4.38,0,0,1,699.69,608.19Z"/><g class="cls-115"><path class="cls-116" d="M586.92,604.1l-15.84-27.57V555.26h1.29v-5H558.9v5h1.29v21.27L544.34,604.1a6,6,0,0,0,5.18,8.94h32.23A6,6,0,0,0,586.92,604.1Z"/></g><path class="cls-117" d="M577.11,609.54h-23a4.26,4.26,0,0,1-3.69-6.37l6.32-11h17.7l6.32,11A4.25,4.25,0,0,1,577.11,609.54Z"/><g class="cls-118"><path class="cls-119" d="M656.54,652.27V629.5h1v-3.67h-10v3.67h1v22.77a20.3,20.3,0,1,0,8.08,0Z"/></g><path class="cls-120" d="M667.87,672.41a15.37,15.37,0,1,1-30.74,0c0-.28,0-.56,0-.84h30.7C667.86,671.85,667.87,672.13,667.87,672.41Z"/><path class="cls-121" d="M678.64,699.21H626.35V667.4h52.29Zm-49.79-2.51h47.29V669.9H628.85Z"/><path class="cls-121" d="M604.18,699.21H551.89V667.4h52.29Zm-49.79-2.51h47.29V669.9H554.39Z"/><path class="cls-122" d="M964.28,652.46l-2.63,193.86s-4.82,35,1.31,50.34S977,905,977,905s-2.19,26.71,15.76,36.34,26.7,3.5,26.7,3.5l16.64-304.24-37-3.4Z"/><path class="cls-123" d="M1006.3,692c-31.52,6.78-35.31,2.41-35.31,15s12.25,46.69,46.11,53.69Z"/><path class="cls-124" d="M976.53,903.22c4.82-9.19,2.63-38.08,2.63-38.08"/><path class="cls-125" d="M1000.09,689.45l.51-23.44-43.32-13.55L972.65,598a60,60,0,0,1,31.87-37.84l67.29-29.29,32.4-2.33,62.89,18.84,11.67,77.47,1.24,64.63.27,14,.33,17.5.27,14,.35,17.51.27,14,.34,18.11H998l.4-18.11.31-14,.39-17.51.31-14,.38-17.5Z"/><polygon class="cls-126" points="1181.5 752.49 998.38 752.49 998.69 738.49 1181.23 738.49 1181.5 752.49"/><polygon class="cls-126" points="1180.88 720.98 999.08 720.98 999.39 706.97 1180.61 706.97 1180.88 720.98"/><polygon class="cls-126" points="1180.28 689.47 999.77 689.47 1000.09 675.45 1180.01 675.45 1180.28 689.47"/><path class="cls-127" d="M1042.41,460.64c-24.51-3.29-18.6-24.08-7-24.52-12-11.38-1.75-22.1,14-18.38s34.07-14.89,54.79-4.6S1122.09,442,1122.09,442s17.72-1.31,14.22,15.76-16,19.92-19.7,31.08-18,21.67-30.48,16Z"/><path class="cls-122" d="M1107.42,532.35s-9.49,16.49-22.47,14.89-12.11-9.63-12.11-9.63l-.77-2.79-7.26-26,36.51-15.77,2,12.82Z"/><path class="cls-123" d="M1103.31,505.92c-4.56,14.44-15.51,27-31.24,28.9l-7.26-26,36.51-15.77Z"/><path class="cls-122" d="M1126,475.73c-.43,13.29-15.32,13.57-19.26,10.81a54.68,54.68,0,0,1-6.35,13.94c-5.8,9.16-16.16,19.47-33.5,19.47-18.62,0-24.68-14.55-26.71-33.37-1.06-9.57-1.06-20.27-1.15-30.72,0-3.44-.06-6.85-.14-10.18,12.47,13.57,59.82,11.89,59.82,11.89l.18.8,5.08,22.19s2.33-10.54,6-13.88S1126.39,462.46,1126,475.73Z"/><line class="cls-124" x1="1067.73" y1="469.46" x2="1064.81" y2="488"/><path class="cls-29" d="M1100.34,500.48c-5.8,9.16-16.16,19.47-33.5,19.47-11.56,0-18.28-5.6-22.19-14.37A53.17,53.17,0,0,1,1041,493c-.37-2.08-.66-4.21-.89-6.42,12.9-6.44,18.63-8.62,27.31-8.37,9,.26,31.81,4.61,31.81,4.61l.17,2.86v0l.85,13.81Z"/><line class="cls-128" x1="1098.45" y1="486.17" x2="1104.21" y2="475.81"/><path class="cls-124" d="M1111.87,481c.8-5.76,4.16-8,7.22-7.88"/><path class="cls-129" d="M1100.28,499.52a61.59,61.59,0,0,1-55.63,6.06A53.17,53.17,0,0,1,1041,493c30.79,4.81,58.4-7.32,58.4-7.32v0Z"/><path d="M1086.13,473.11c0,2-1.34,3.6-3,3.6a3.34,3.34,0,0,1-3-3.6c0-2,1.34-3.61,3-3.61S1086.13,471.11,1086.13,473.11Z"/><path d="M1055.44,473.11a3.06,3.06,0,1,1-3-3.61A3.35,3.35,0,0,1,1055.44,473.11Z"/><path class="cls-130" d="M1078.26,465.45a9.35,9.35,0,0,1,9.74.49"/><path class="cls-130" d="M1047.6,465.83a9.33,9.33,0,0,1,9.75-.27"/><path class="cls-122" d="M1211.71,666l-10.66,53a41.32,41.32,0,0,1-46.24,32.76l-107.22-15s-29.25,7.14-44.58,3.42-34.79-33.93-28.44-36.34,35.66,1.32,39.38.44,17.87-3.51,17.87-3.51-9.32-19-6.26-23.85,13.79,0,16.42,5.91,7.53,14.36,7.53,14.36l100.6-5.16,4.64-39.55Z"/><path class="cls-125" d="M1222.72,611.33l-11,54.68-57-13.55,12.35-105.11,31.25,15A44.57,44.57,0,0,1,1222.72,611.33Z"/><line class="cls-124" x1="1150.11" y1="692.01" x2="1174.1" y2="692.01"/><line class="cls-131" x1="1154.75" y1="652.46" x2="1161.27" y2="596.94"/><line class="cls-131" x1="1000.61" y1="666.01" x2="1000.61" y2="608.32"/><path class="cls-131" d="M1063.84,534.31s-1.22,21.63,25.34,20.46,26.3-22.89,26.3-22.89"/><polygon class="cls-127" points="997.98 784.6 1006.59 1076.61 1220.8 1076.61 1181.84 784.6 997.98 784.6"/><polyline class="cls-132" points="1063.83 849.38 1092.52 856.38 1115.48 1070.01"/><path class="cls-133" d="M806.22,435.52c-2.88-33-85.28-34.38-97.24,12.88s-36.22,55.86-28.34,81.82,46,55.52,101.16,42.12,70.83-45.36,52.09-73.11S826.64,442.7,806.22,435.52Z"/><line class="cls-134" x1="872.93" y1="696.46" x2="893.94" y2="698.79"/><polygon class="cls-127" points="681.78 766.41 629.83 1076.61 847.02 1076.61 835.61 738.49 784.86 745.49 681.78 766.41"/><polygon class="cls-29" points="708.98 781.09 819.82 781.09 806.98 547.35 748.03 547.35 738.09 541.71 715.09 561.64 695.5 660.87 708.98 781.09"/><path class="cls-135" d="M824.19,550.54,850.44,565a47.54,47.54,0,0,1,18.65,18.53l54.56,97.77a43.37,43.37,0,0,1,.07,42.12l-52,93.89-36.77-46,37.94-74.83-40.86-63Z"/><path class="cls-122" d="M837.33,768.83c32.39-1.46,23.64,40.28,28.31,57.49s2.91,54-16.06,38.82Z"/><path class="cls-135" d="M779.53,547.56,821,963.19l47.87-19.26S841.64,729.33,844,714s20.79-59.42,14.37-76.11-34.15-87.32-34.15-87.32L782.75,533Z"/><polygon class="cls-135" points="734.46 531.88 734.46 752.49 705.2 963.19 618.57 938.68 668.36 752.16 668.36 585.85 675.95 547.55 714.7 537.18 734.46 531.88"/><polygon class="cls-136" points="734.46 531.88 734.46 637.86 706 564.26 714.7 537.18 734.46 531.88"/><path class="cls-137" d="M812.88,784.6H724.17a8.87,8.87,0,0,1-9-10.44L734.28,638a12.4,12.4,0,0,1,11.89-10.43h88.72a8.86,8.86,0,0,1,9,10.43L824.78,774.16A12.41,12.41,0,0,1,812.88,784.6Z"/><path class="cls-127" d="M809.07,637.17H769.31a2.78,2.78,0,0,1-2.81-3.27l1.77-12.63A3.89,3.89,0,0,1,772,618h39.76a2.78,2.78,0,0,1,2.81,3.27L812.8,633.9A3.91,3.91,0,0,1,809.07,637.17Z"/><path class="cls-122" d="M787.84,698.36s19.94-30.21,26.94-26.27-6.13,20.14-6.13,20.14,19.92-7.66,26.27-12.26,16.2,1.53,10.29,23.42-34.63,33.27-57.37,38.3Z"/><path class="cls-127" d="M739.34,521.79c-8.24,2.92-14.08,10.8-13.93,15.33s14.59,21.45,20.72,24.22,10.94-14.45,16.2-12.84,8.38,16.34,14.26,10.8,12-18.39,6.16-26.27-24-9.48-24-9.48Z"/><path class="cls-122" d="M738.09,533.56s10.27,16,23.16,13.78,11.63-10.2,11.63-10.2l.64-2.82,6-26.28-37.24-14L740.91,507Z"/><path class="cls-123" d="M740.91,507c5.26,14.2,16.8,26.24,32.61,27.35l6-26.28-37.24-14Z"/><path class="cls-122" d="M716.84,477.91c1.07,13.26,15.95,12.82,19.75,9.86a54.77,54.77,0,0,0,7,13.62c6.24,8.87,17.09,18.66,34.41,17.82,18.6-.91,23.94-15.72,25.06-34.63.59-9.61.07-20.29-.35-30.73-.14-3.44-.27-6.85-.34-10.18-11.81,14.16-59.18,14.78-59.18,14.78l-.14.8-4,22.42s-2.85-10.42-6.65-13.58S715.75,464.67,716.84,477.91Z"/><line class="cls-124" x1="774.68" y1="468.83" x2="778.49" y2="487.2"/><path class="cls-29" d="M743.61,501.39c6.24,8.87,17.09,18.66,34.41,17.82,11.54-.56,18-6.48,21.47-15.43a53.35,53.35,0,0,0,3-12.74q.4-3.14.58-6.46c-13.2-5.8-19-7.71-27.69-7-8.94.7-31.54,6.15-31.54,6.15l0,2.86v0l-.17,13.84Z"/><line class="cls-128" x1="744.81" y1="487.01" x2="738.55" y2="476.94"/><path class="cls-124" d="M731.15,482.48c-1.08-5.72-4.54-7.81-7.6-7.52"/><path class="cls-129" d="M743.63,500.43a61.61,61.61,0,0,0,55.86,3.35,53.35,53.35,0,0,0,3-12.74c-30.52,6.3-58.69-4.48-58.69-4.48v0Z"/><path d="M756.47,473.36a3.35,3.35,0,0,0,3.19,3.45c1.66-.08,2.92-1.76,2.83-3.74s-1.52-3.54-3.18-3.46S756.38,471.37,756.47,473.36Z"/><path d="M787.14,471.87a3.34,3.34,0,0,0,3.18,3.45c1.66-.08,2.92-1.76,2.83-3.74s-1.52-3.54-3.18-3.46A3.35,3.35,0,0,0,787.14,471.87Z"/><path class="cls-138" d="M764,465.33a9.35,9.35,0,0,0-9.7,1"/><path class="cls-138" d="M794.61,464.23a9.35,9.35,0,0,0-9.75.19"/><path class="cls-135" d="M675.94,547.56l-31.36,9.12a36.06,36.06,0,0,0-25.45,40.92l25.62,145a38.24,38.24,0,0,0,47.59,30.27l107-28.83-12.84-50.78-91,19.55Z"/><polyline class="cls-134" points="668.36 719.22 695.5 712.8 683.94 615.15"/><path class="cls-134" d="M716.28,766.41s-36.73,18.63-49.55,4.4"/><path class="cls-134" d="M662.81,889.65c29.77-1.75,37.94-47.27,37.94-47.27"/><path class="cls-134" d="M849.89,692s23.26-42.62-3.7-85.33"/><path class="cls-134" d="M824.19,846.75C839.52,876.08,847,877.83,847,877.83"/><polyline class="cls-132" points="741.68 1074.14 763.97 849.38 787.84 838.87"/></g></g></svg>